<?xml version="1.0" standalone="no"?>
<svg viewBox="-350 -150 1500 1500" style="width: 487.5px; height: 487.5px; justify-content: center; align-self: center; transform: scale(1, 1);" xmlns="http://www.w3.org/2000/svg"><rect x="-350" y="-150" width="100%" height="100%" fill="#FFD55A" rx="30"></rect><g transform="rotate(0 402.96013259887695 616.5044021606445)"><g transform="translate(0 459)"><path d="M733.147 436.112C733.147 428.02 721.947 413.657 721.928 406.328C731.344 404.645 739.216 391.888 737.13 383.899C733.455 381.09 723.822 375.56 719.838 372.978C695.565 373.714 704.79 339.945 702.043 322.78C699.277 305.986 697.223 288.426 693.175 271.537C685.985 258.023 682.611 242.873 675.739 229.427C672.67 224.971 667.71 220.886 666.225 215.709C651.191 199.289 630.495 189.447 613.463 175.54C620.073 173.424 619.632 164.509 619.205 158.784C620.743 151.315 619.1 141.947 612.288 137.739C609.986 130.239 599.924 127.621 594.04 132.399C590.175 115.076 575.054 104.566 559.214 98.1382C559.228 98.0872 559.241 98.0372 559.256 97.9862C543.281 91.6462 524.134 88.4855 508.194 92.0495C516.608 -1.69929 444.805 -5.14063 408.364 2.73778C389.725 6.76756 361.758 19.3134 355.404 36.7544C351.818 46.6009 341.524 78.3569 340.059 88.4855C312.232 72.6065 279.972 51.6682 255.836 83.6362C251.003 89.2072 245.655 93.3452 238.423 95.2592C215.843 101.118 185.873 101.314 173.039 124.332C165.368 138.592 172.267 147.988 170.206 162.253C68.5633 233.632 -16.3777 496.585 2.6943 618.918C7.2823 662.697 29.6823 740.186 84.9713 730.525C113.171 761.369 586.495 761.369 635.302 730.525C675.477 741.033 716.299 724.767 733.147 686.289C754.542 633.527 731.869 576.546 727.851 522.421C725.411 508.756 721.779 497.909 719.838 483.919C719.029 478.09 721.82 468.392 719.838 463.018C720.773 459.52 733.147 444.203 733.147 436.112Z" transform="translate(30.9998 -44.64909)" fill="#FFFFFF" stroke="none"></path><path d="M369.588 6.25729C369.661 6.58229 369.712 6.90329 369.758 7.22429C370.092 8.59429 370.217 9.91129 370.176 11.2343C370.196 11.7113 370.161 12.1893 370.072 12.6623C369.893 14.2193 369.518 15.8173 369.011 17.5643C367.932 21.2813 366.696 24.9533 365.315 28.5703C362.585 35.7233 359.362 42.5483 355.378 49.0903C348.181 60.9073 339.032 70.7163 328.246 79.1953C330.293 80.8843 332.294 82.6413 334.299 84.3663C343.99 92.7063 353.419 101.424 362.552 110.372C378.771 126.265 394.664 142.453 410.184 159.029C417.839 167.204 425.352 175.486 432.824 183.824L433.069 184.105L433.334 184.42C433.685 184.845 434.082 185.346 434.516 185.895C437.366 189.497 441.814 195.119 445.248 194.052C447.246 193.43 449.35 190.449 450.712 189.027L453.221 186.411C454.055 185.537 454.884 184.657 455.698 183.765C470.294 167.773 484.105 151.167 497.073 133.81C503.401 125.341 509.518 116.713 515.413 107.935C518.443 103.422 521.417 98.8693 524.331 94.2783C527.149 89.8383 529.428 85.0663 533.581 81.7523C536.629 79.3203 540.852 81.5503 540.084 85.5373C538.874 91.8163 534.528 97.1263 531.106 102.433C527.669 107.766 524.151 113.047 520.554 118.272C513.631 128.332 506.408 138.18 498.927 147.83C492.485 156.141 485.763 164.238 478.86 172.171L476.973 174.33C469.548 182.795 462.26 191.781 454.055 199.507C446.708 206.426 438.684 204.41 431.991 197.686C423.526 189.185 415.667 179.991 407.522 171.18C391.246 153.572 374.8 136.098 358.184 118.81L352.722 113.12C346.353 106.473 340.01 99.7831 333.833 92.9713L333.036 92.0832C325.991 84.1587 318.828 74.2313 308.813 70.2023C308.089 69.9113 308.355 68.8833 309.137 69.0273C315.548 70.2123 320.9 73.4423 325.88 77.3013C330.356 69.8943 334.35 62.0863 337.832 54.1003L335.598 53.1303C319.614 46.2237 301.599 39.2598 284.438 40.3793C277.522 40.8293 270.143 43.4493 265.368 48.6413C261.044 53.3443 258.885 59.6863 254.917 64.6953C250.372 70.4323 244.444 73.0143 237.169 73.2473L233.631 73.3546C229.563 73.4866 225.661 73.7001 221.534 74.5953C210.352 77.0193 198.563 80.9523 189.185 87.6693C185.783 90.1053 182.271 93.4553 180.626 97.1463C178.995 100.803 178.526 105.082 178.367 109.029C178.338 109.753 178.402 110.564 178.467 111.393C178.574 112.766 178.685 114.185 178.386 115.333C178.44 115.125 178.465 115.237 178.472 115.456C179.971 116.638 180.992 118.603 181.103 120.561C190.451 115.689 200.128 111.419 209.993 107.57C220.977 103.285 232.302 99.8513 243.629 96.5993C254.715 93.4183 266.319 92.1023 277.62 89.8343C279.059 89.5453 279.559 91.4883 278.218 92.0043C266.34 96.5663 254.847 101.974 242.87 106.266C230.899 110.557 219.017 115.201 207.393 120.363C184.925 130.344 163.222 143.044 145.521 160.275C128.233 177.105 114.898 197.55 102.496 218.106C90.006 238.807 78.859 260.262 68.924 282.301C49.27 325.9 34.532 371.741 24.829 418.565C15.386 464.131 10.11 511.324 11.867 557.897C12.701 580.017 15.403 602.154 21.687 623.428C24.689 633.592 28.447 643.523 33.195 653.004C38.202 663 44.948 671.904 49.52 682.07C49.896 682.906 50.04 683.709 50.019 684.455C69.519 701.35 100.041 689.965 121.145 679.878C169.705 656.658 217.365 631.248 262.665 602.088C307.375 573.307 349.745 541.187 391.115 507.848C387.915 504.548 385.094 500.848 382.615 497.498C377.495 490.578 373.645 482.738 370.995 474.557C367.895 464.977 366.934 454.727 367.815 444.718L368.065 441.887C368.908 432.435 369.881 422.844 371.955 413.607C371.974 413.488 372.065 413.437 372.165 413.437C372.264 413.437 372.365 413.498 372.405 413.607C377.995 431.498 378.445 450.727 384.724 468.388C387.254 475.488 391.174 482.348 395.875 488.238C397.905 490.787 400.285 492.998 402.714 495.158C402.875 494.057 403.094 492.968 403.424 491.898L403.686 491.051C404.011 490.023 404.414 488.879 404.974 487.867C404.184 487.638 403.415 487.388 402.655 487.107C402.054 486.888 401.924 485.918 402.655 485.758C404.645 485.298 406.695 485.068 408.785 484.968C409.115 484.918 409.434 484.908 409.754 484.928C412.303 484.849 414.881 484.941 417.411 485.032C418.763 485.08 420.102 485.127 421.415 485.148C427.945 485.248 434.455 485.367 440.974 485.658C444.107 485.794 447.342 486.046 450.624 486.301C460.416 487.064 470.628 487.86 479.825 485.687C490.985 483.048 501.985 475.607 510.934 468.607C518.754 462.488 524.785 455.218 531.274 447.968C530.808 448.042 530.346 448.111 529.885 448.175L525.7 448.748C520.418 449.453 514.147 450.007 509.955 447.468C508.354 446.498 508.815 444.298 510.445 443.697C513.251 442.669 516.5 442.873 519.69 443.074C521.365 443.18 523.024 443.284 524.594 443.208C528.174 443.037 531.795 442.658 535.325 441.918C536.485 441.678 537.634 441.398 538.774 441.068C547.134 438.658 556.955 430.178 550.315 420.918C550.065 420.568 550.344 420.248 550.684 420.187C550.835 420.158 550.995 420.187 551.125 420.298C558.684 426.557 554.754 437.777 547.604 442.588C545.145 444.248 542.365 445.408 539.485 446.258C540.035 447.267 540.134 448.508 539.474 449.687C533.875 459.668 524.395 468.437 515.514 475.488C506.395 482.727 495.875 489.557 484.565 492.758C473.985 495.738 462.56 494.488 451.557 493.283C448.977 493 446.421 492.721 443.905 492.498C436.724 491.867 429.565 491.117 422.395 490.287C420.474 490.068 418.485 489.898 416.464 489.708C418.365 492.208 419.875 495.088 420.865 496.818C424.085 502.437 421.115 509.838 414.875 511.557C414.224 511.738 413.554 511.838 412.895 511.857C411.214 515.227 407.214 517.708 403.514 516.437C401.905 515.888 400.354 515.138 398.865 514.238C375.594 534.678 351.094 553.857 325.895 571.838C279.165 605.178 230.184 635.628 179.395 662.398C167.955 668.428 156.428 674.296 144.803 679.936L134.797 684.759C123.722 690.089 112.387 695.39 100.625 698.697C98.332 699.342 95.931 699.863 93.471 700.262C93.4391 700.483 93.4311 700.693 93.4455 700.895C91.234 701.19 89.3041 701.235 87.6563 701.03L87.281 700.978C72.864 701.986 57.443 698.466 48.168 687.936C46.622 689.021 44.368 689.141 42.379 687.58C32.376 679.731 26.413 667.781 21.18 656.372C15.874 644.799 11.715 632.738 8.65899 620.382C2.55499 595.704 0.133988 570.248 0.00640295 544.863C-0.455012 447.044 24.043 348.366 66.595 260.547C77.387 238.274 89.283 216.417 102.489 195.48C115.659 174.6 130.952 155.195 150.537 139.967C156.169 135.589 162.028 131.586 168.071 127.898C164.015 125.888 162.404 120.775 162.12 116.233C161.49 106.146 162.692 94.5253 168.598 86.0143C176.883 74.0743 191.714 66.7123 205.466 63.1323C212.645 61.2643 220.071 60.1753 227.476 59.8073C229.158 59.7231 230.869 59.798 232.58 59.8728C234.752 59.9678 236.923 60.0628 239.033 59.8323C242.361 59.4703 244.419 57.4843 246.333 54.8733C251.236 48.1803 254.428 41.1603 261.461 36.2543C268.677 31.2213 278.028 29.2953 286.721 29.8173C296.848 30.4263 306.087 34.4163 315.006 39.0013C323.056 43.1393 330.87 47.7233 338.485 52.6133C339.881 49.3423 341.196 46.0463 342.419 42.7393C344.791 36.3273 346.854 29.7113 348.528 23.0833C350.225 16.3623 349.977 7.48629 355.103 2.43229C359.56 -1.96071 368.143 -0.235711 369.588 6.25729ZM510.812 38.7601C510.972 35.4816 511.133 32.1658 510.417 29.1003C510.317 28.6753 509.779 28.6823 509.559 28.9883C507.274 32.1729 506.43 36.4367 505.863 40.4991L505.737 41.4325L505.216 45.4513C504.536 50.9234 504.279 56.4296 504.608 61.9393C504.95 67.6563 505.753 73.3803 507.011 78.9683C508.312 84.7463 509.282 90.8113 514.136 94.5353C517.563 97.1663 521.693 93.4863 521.965 90.0433C522.235 86.6303 520.509 83.1485 518.854 79.8113C518.096 78.2842 517.354 76.7874 516.825 75.3413C515.242 71.0143 513.975 66.5723 513.007 62.0663C523.327 58.9923 534.493 60.7043 544.815 63.9033L546.221 64.3393C557.391 67.8115 570.388 72.1393 576.141 82.9323C579.145 88.5703 582.075 93.0123 587.685 96.3323C592.555 99.2133 598.668 100.768 601.91 105.754C604.503 109.74 604.148 113.539 603.457 117.625L602.976 120.397L602.86 121.107C602.507 123.342 602.412 125.576 602.792 127.597C596.182 123.402 589.424 119.439 582.524 115.686C584.465 113.451 586.24 111.124 587.638 108.684C588.624 106.967 588.669 104.773 587.638 103.058C583.317 95.8593 577.05 103.742 573.433 108.292C572.93 108.924 572.479 109.491 572.091 109.945L570.881 111.35C566.018 116.946 560.863 122.285 555.541 127.446C544.126 138.516 531.976 148.832 520.104 159.403C497.528 179.506 472.676 201.171 460.688 229.668C460.445 230.245 461.316 230.498 461.63 230.064C479.108 205.999 500.115 186.426 523.35 167.993C534.876 158.85 546.485 149.851 557.514 140.101C562.791 135.436 567.954 130.639 572.904 125.626L573.934 124.59C576.364 122.159 578.963 119.633 581.375 116.978C608.714 140.568 639.155 161.088 660.285 190.928C668.674 202.77 675.592 215.601 681.067 229.025C689.644 262.639 696.467 296.664 701.53 330.982C699.444 327.175 694.004 324.506 690.165 323.096L689.524 322.867C684.125 320.988 678.485 320.787 673.115 322.588C670.405 320.857 667.434 319.488 664.315 318.418C665.655 314.748 663.445 309.248 660.705 306.857C655.604 302.432 648.118 302.564 641.424 303.198L640.228 303.316L636.655 303.697C635.054 303.867 633.974 304.857 633.854 306.498C633.785 307.458 633.745 308.398 633.754 309.338C633.774 311.027 633.934 312.687 634.295 314.298C622.823 314.095 611.315 314.596 599.827 315.097C595.472 315.287 591.12 315.477 586.774 315.628C582.235 315.787 577.705 315.947 573.165 316.098C572.705 309.998 567.274 307.008 561.085 305.888C565.625 301.838 569.514 296.318 566.665 290.218C563.684 283.828 555.445 283.258 549.634 285.648C545.464 287.348 542.134 290.548 537.995 292.258C533.815 293.988 529.285 293.498 524.905 292.918L524.097 292.81C523.603 292.743 523.105 292.672 522.605 292.602C516.259 291.706 509.465 290.748 503.815 294.357C496.705 298.898 497.395 308.898 490.285 313.117C486.655 315.277 482.235 315.977 478.294 317.388C474.075 318.888 470.304 321.037 466.815 323.848C459.634 329.628 454.174 337.258 448.014 344.048C440.964 351.787 433.634 359.248 425.934 366.338C408.565 382.328 388.785 395.648 371.875 412.078C371.524 412.418 371.815 412.918 372.205 412.958C372.294 412.958 372.395 412.937 372.495 412.888C386.971 405.016 400.318 394.956 413.247 384.737L415.745 382.758C429.785 371.598 443.415 359.727 455.325 346.287C460.724 340.187 465.684 333.307 472.285 328.408C478.445 323.828 485.895 323.168 492.604 319.838C499.625 316.348 500.844 310.568 504.325 304.227C507.57 298.3 513.467 298.405 519.28 299.168L519.881 299.249L523.495 299.767C531.535 300.857 538.344 300.638 545.384 296.248C546.007 295.86 546.637 295.439 547.277 295.01C550.12 293.107 553.158 291.073 556.634 291.318C564.658 291.878 557.995 299.552 554.639 302.277L554.429 302.444L554.134 302.668C553.134 303.408 552.684 304.398 552.645 305.408C550.735 305.498 548.945 305.738 547.395 306.057C542.395 307.117 538.065 310.138 537.514 315.548C537.365 317.057 537.665 318.848 538.495 320.138C535.604 321.328 532.464 323.078 529.695 325.258C523.545 327.148 517.335 331.798 511.915 334.958C507.964 337.258 503.155 339.638 499.174 342.607C492.745 343.738 486.335 345.178 480.575 347.617C480.035 347.857 480.354 348.658 480.865 348.668C485.325 348.807 489.915 348.318 494.485 347.678C494.535 347.708 494.594 347.727 494.665 347.718C495.625 347.628 496.585 347.458 497.565 347.218C500.705 346.738 503.825 346.238 506.875 345.857C512.335 345.178 517.815 344.537 523.285 343.928C526.854 343.527 530.424 343.138 533.995 342.758C551.485 340.878 569.035 339.658 586.604 338.988C587.44 338.956 588.428 338.882 589.514 338.8C596.765 338.257 608.356 337.388 607.835 346.408C607.429 353.266 600.492 357.326 594.681 359.331L594.094 359.527C579.825 364.208 563.655 364.168 548.825 365.908C540.054 366.947 531.295 368.117 522.625 369.787C513.594 371.537 503.934 373.458 495.705 377.708C493.065 379.068 493.974 382.428 496.155 383.428C496.125 383.488 496.094 383.557 496.075 383.628C495.924 384.068 496.245 384.617 496.695 384.727C496.815 384.758 496.934 384.777 497.054 384.798C491.924 385.888 486.854 387.267 481.895 388.908C481.375 389.078 481.594 389.818 482.125 389.727C494.844 387.408 507.815 386.357 520.745 386.968C527.315 387.277 533.875 387.748 540.384 388.777C546.335 389.718 553.214 390.588 558.445 393.767C559.625 394.477 560.714 395.398 561.615 396.437C561.424 397.517 561.615 398.638 562.365 399.777C562.615 400.168 563.384 400.187 563.474 399.628C563.485 399.557 563.504 399.477 563.524 399.408C564.724 402.227 564.455 405.348 561.455 407.748C558.227 410.33 553.424 410.977 549.346 411.329L548.514 411.398C535.524 412.468 522.395 412.537 509.445 413.998C506.285 414.348 504.844 417.267 505.274 419.668C505.245 419.648 505.205 419.628 505.174 419.598C505.224 419.977 505.365 420.338 505.575 420.678C505.575 420.697 505.585 420.708 505.604 420.727C506.205 422.008 507.474 422.928 509.445 422.838C518.415 422.458 527.405 421.287 536.344 420.468C541.014 420.037 545.825 419.838 550.535 419.187C552.625 418.888 554.695 418.517 556.724 417.988C567.384 415.218 575.695 405.517 569.224 394.818C570.247 394.395 571.277 394.034 572.191 393.728L574.004 393.128C577.585 391.947 581.214 390.998 584.915 390.348C588.115 389.798 591.315 389.468 594.514 389.357C592.285 395.227 592.514 403.037 593.235 408.258C594.295 415.867 598.285 426.807 605.445 430.818C600.785 434.098 597.695 438.958 601.464 444.117C597.565 450.258 598.214 457.918 602.604 463.908C606.745 469.557 613.354 472.318 620.085 473.758C620.115 482.398 621.875 491.418 622.924 499.798C624.235 510.208 625.514 520.617 626.645 531.048C628.825 551.267 630.565 571.508 631.125 591.838C631.614 609.504 630.887 627.079 629.994 644.695L629.604 652.248C629.075 662.508 628.835 672.798 629.174 683.068C629.235 684.718 629.274 686.408 629.335 688.128L629.395 689.899C629.626 696.121 630.091 702.584 631.681 708.49L632.125 708.885C634.806 711.22 637.784 712.927 641.06 714.005C641.831 712.056 641.219 709.778 639.864 708.269C639.783 705.639 639.589 703.003 639.344 700.367C643.455 702.607 648.035 704.088 651.304 704.758C660.844 706.727 670.705 705.998 680.004 703.187C720.174 691.048 742.285 649.668 745.445 610.117C746.487 597.124 745.789 584.109 744.03 571.202C743.47 555.908 740.522 540.887 737.365 525.927L736.096 519.945L735.148 515.461C730.718 494.357 728.005 473.023 725.481 451.623C725.268 449.819 724.298 448.527 723.04 447.747C723.487 446.802 723.831 445.746 724.045 444.548C724.628 441.298 724.348 438.129 724.077 435.053C723.586 429.478 723.121 424.209 727.865 419.318C728.049 419.128 728.234 418.939 728.418 418.75C733.956 413.06 739.111 407.764 735.705 399.197C734.561 396.316 732.666 393.654 730.768 390.988C727.541 386.456 724.306 381.912 724.735 376.258C724.785 375.548 723.924 375.187 723.384 375.477C723.254 375.548 723.155 375.658 723.075 375.807C720.043 381.757 723.516 387.286 726.907 392.685C730.384 398.22 733.776 403.619 729.985 409.197C726.045 414.988 719.474 417.617 717.955 425.088C717.469 427.488 717.782 430.496 718.105 433.59C718.645 438.771 719.209 444.192 716.085 447.398C714.924 448.578 707.504 452.517 706.445 453.428C704.085 455.428 702.155 457.888 700.445 460.447C697.094 465.468 694.804 471.107 691.625 476.227C691.415 476.568 691.195 476.908 690.974 477.248C686.934 483.428 681.424 486.767 673.844 485.447C665.365 483.977 658.434 477.777 650.865 474.057C641.865 469.638 632.065 469.807 622.445 467.848C622.035 467.767 621.625 467.678 621.214 467.588C616.835 466.588 612.264 464.988 609.094 461.727C605.764 458.307 603.835 452.517 606.415 448.197C609.209 449.494 612.427 449.857 615.578 450.026L616.626 450.076L622.538 450.31C629.226 450.556 635.92 450.692 642.615 450.718C650.415 450.738 658.224 450.617 666.024 450.338L666.859 450.31C674.122 450.083 682.005 450.239 689.035 448.458C691.695 447.787 690.875 444.187 688.424 443.947C684.295 443.55 679.951 443.886 675.694 444.216C674.076 444.341 672.471 444.466 670.895 444.548C665.045 444.848 659.195 445.057 653.344 445.187C641.634 445.437 629.924 445.357 618.224 444.918C615.304 444.807 609.304 444.388 606.485 442.158C604.884 440.888 604.315 439.017 605.934 436.287C608.375 432.178 615.445 430.787 619.585 429.388L620.986 428.921C627.996 426.601 635.066 424.546 642.274 423.168L644.301 423.164C662.806 423.057 681.039 420.759 699.075 416.568C701.915 415.908 700.695 411.678 697.875 412.227C682.585 415.218 667.004 416.918 651.434 417.468C644.004 417.727 636.575 417.678 629.155 417.318L628.875 417.306C628.405 417.288 627.905 417.277 627.383 417.267C624.014 417.198 619.792 417.112 617.625 414.658C615.285 412.027 616.014 407.777 617.674 405.027C620.847 399.754 627.992 396.952 633.514 394.559L634.274 394.227L636.115 393.435C642.2 390.855 648.474 388.644 654.825 386.787C663.514 384.258 672.405 382.598 681.354 381.357C687.134 380.548 692.934 379.908 698.735 379.318C699.524 379.238 699.514 378.187 698.735 378.098C696.325 377.798 693.905 377.598 691.485 377.488C694.295 376.418 697.085 375.328 699.865 374.227C702.774 373.078 706.174 372.238 708.634 370.388C709.575 370.367 710.514 370.318 711.434 370.218C715.195 369.818 716.665 364.138 712.395 363.128C710.905 362.777 709.384 362.527 707.844 362.348C703.545 361.838 699.104 361.838 694.854 361.548L694.197 361.508C692.855 361.435 691.456 361.406 690.036 361.377C686.083 361.294 681.958 361.209 678.405 360.158C672.086 358.278 676.904 351.756 680.255 348.853L680.62 348.545L680.974 348.267C684.795 345.378 689.585 343.767 694.315 343.227C699.72 342.616 705.183 343.171 710.538 344.026L712.653 344.375C717.776 345.214 723.481 345.843 728.094 348.298C733.604 351.227 736.145 356.568 732.934 362.338C730.569 366.589 726.133 369.248 721.859 371.604L720.217 372.503L719.014 373.168C718.295 373.568 718.795 374.607 719.554 374.447C720.684 374.218 721.815 373.958 722.934 373.678C728.604 372.238 734.035 369.958 737.754 365.158C742.134 359.508 742.045 352.298 737.684 346.687C733.639 341.501 727.545 339.473 721.369 338.08L720.507 337.89L718.785 337.527C715.82 336.926 712.822 336.33 709.805 335.845C711.067 334.744 711.88 333.085 711.585 331.043C709.329 315.455 706.686 299.932 703.703 284.474C703.928 280.038 702.883 275.216 701.923 270.78C701.657 269.554 701.398 268.358 701.174 267.208L700.833 265.482C699.558 259.157 698.019 252.884 696.205 246.687C695.518 244.349 694.779 242.025 694.016 239.71C692.949 235.278 684.36 215.561 681.078 208.817L680.701 208.053L680.375 207.418C666.905 181.838 647.474 160.098 624.495 142.658C620.551 139.662 616.537 136.783 612.468 133.99C614.366 132.76 615.53 130.229 614.92 127.999C614.143 125.158 613.862 123.947 614.434 120.996C615.072 117.716 615.627 114.572 615.284 111.209C614.641 104.891 611.6 98.7693 606.701 94.6743C601.896 90.6573 595.7 89.2543 590.702 85.6293C587.471 83.2863 586.17 79.5923 584.132 76.3223C582.434 73.5973 580.406 71.1253 577.958 69.0373C568.043 60.5853 553.404 56.4253 540.753 54.5453C530.973 53.0923 520.831 53.6723 512.249 58.1863C511.433 53.5603 510.879 48.8923 510.701 44.1973C510.634 42.4308 510.723 40.6017 510.812 38.7601ZM311.752 142.813C306.286 137.205 300.996 130.648 294.537 126.165C294.079 125.848 293.625 126.449 293.832 126.871C297.518 134.375 303.681 140.999 308.718 147.645L311.115 150.79C315.12 156.021 319.184 161.202 323.278 166.367C332.027 177.404 341 188.248 350.779 198.396C369.66 217.991 391.065 235.312 416.904 244.68C423.031 246.9 425.709 237.09 419.596 234.916C394.334 225.932 373.627 208.342 355.323 189.227C346.138 179.635 337.245 169.766 328.188 160.056C322.768 154.246 317.297 148.503 311.752 142.813ZM185.328 183.25C190.167 190.341 193.188 199.767 196.168 207.871L196.466 208.676C199.634 217.192 202.69 225.775 205.54 234.404C211.229 251.629 218.643 269.654 220.013 287.85C220.266 291.208 215.127 292.555 213.637 289.578C209.356 281.021 207.054 272.102 204.521 262.927C202.105 254.178 199.588 245.46 197.07 236.74C194.553 228.024 192.118 219.283 189.639 210.557C187.228 202.068 183.871 192.629 183.319 183.794C183.247 182.646 184.772 182.434 185.328 183.25ZM156.924 250.436C166.42 269.622 173.564 290.022 178.954 310.719C181.557 320.714 183.765 330.807 185.541 340.981L186.124 344.379L186.455 346.223C186.565 346.821 186.676 347.422 186.788 348.027C188.372 356.583 190.06 365.699 187.784 373.964C186.989 376.855 182.189 377.999 180.845 374.872C176.791 365.432 177.361 354.581 176.186 344.479C174.951 333.879 173.266 323.329 171.166 312.866C167.133 292.761 161.471 273.128 155.16 253.641L154.456 251.477C153.92 250.034 156.254 249.083 156.924 250.436ZM603.846 330.224C603.309 328.271 604.514 325.695 606.639 325.305C610.417 324.609 614.332 324.533 617.982 325.881C620.017 326.631 621.39 328.567 620.776 330.801C620.239 332.758 617.882 334.343 615.856 333.595C613.553 332.746 611.184 332.574 608.766 333.019L608.56 333.053C606.495 333.349 604.44 332.387 603.846 330.224ZM632.658 326.658C632.233 326.796 631.857 327.02 631.53 327.325L631.371 327.485C630.981 327.848 630.705 328.277 630.544 328.772C630.294 329.25 630.178 329.764 630.199 330.314L630.342 331.377C630.532 332.055 630.875 332.642 631.371 333.142L632.18 333.767C632.726 334.084 633.31 334.263 633.931 334.305L634.199 334.314L635.009 334.315C635.472 334.299 635.907 334.184 636.316 333.969C636.741 333.831 637.117 333.609 637.444 333.302L637.603 333.142C637.994 332.779 638.269 332.35 638.43 331.855C638.645 331.446 638.76 331.01 638.775 330.548L638.775 330.314L638.632 329.25C638.466 328.657 638.182 328.133 637.782 327.677L637.603 327.485L636.794 326.859C636.248 326.543 635.664 326.365 635.043 326.323L634.775 326.314L634.199 326.314C633.648 326.293 633.134 326.408 632.658 326.658ZM513.764 340.037C516.264 338.818 519.094 337.598 521.924 336.267C521.745 337.148 521.655 338.057 521.684 338.977C518.844 339.398 516.004 339.848 513.174 340.328C513.375 340.227 513.575 340.138 513.764 340.037ZM597.857 390.621L598.115 389.318C601.974 389.378 605.844 389.738 609.705 390.388C615.655 391.388 619.174 392.398 624.024 393.218C623.735 393.357 623.434 393.517 623.145 393.678L622.473 394.051C617.111 397.08 612.109 401.354 610.995 407.727C609.026 419.002 618.138 422.162 627.795 422.979L628.387 423.026L629.304 423.088C623.524 424.197 617.825 425.678 612.245 427.447C611.575 427.658 610.884 427.918 610.184 428.208C610.134 427.867 610.014 427.517 609.825 427.168C607.995 423.878 605.125 421.357 603.145 418.148C601.054 414.738 599.585 411.017 598.535 407.168C597.464 403.277 597.004 399.248 597.205 395.218C597.275 393.678 597.557 392.144 597.857 390.621ZM199.826 404.401C199.902 409.235 198.506 414.312 197.16 419.21C196.638 421.109 196.123 422.981 195.704 424.802C194.09 431.825 192.48 438.848 190.848 445.868L189.381 452.157C188.158 457.398 186.953 462.643 185.873 467.917C184.985 472.252 184.613 477.965 183.158 482.744C200.465 475.744 217.799 468.815 235.104 461.838C256.424 453.239 277.844 444.878 299.214 436.418C320.504 427.998 341.674 418.418 363.395 411.218C368.565 409.498 372.065 417.748 367.114 420.037C345.054 430.268 321.714 438.278 299.114 447.239L266.423 460.217C236.454 472.108 206.464 483.942 176.324 495.368C155.794 503.149 135.344 511.159 114.684 518.548C104.834 522.069 94.8954 525.399 85.0944 529.048C76.8844 532.108 68.0044 536.649 64.9644 545.468C64.8044 545.928 64.1744 545.739 64.2444 545.268C65.4744 536.728 71.8154 531.388 78.9644 527.348C88.4531 521.972 98.875 518.06 108.891 513.749L110.254 513.159C130.707 504.239 151.325 495.68 172.004 487.264C171.799 486.764 171.678 486.228 171.669 485.668L171.61 485.684C171.307 482.6 172.389 479.786 173.481 476.946C173.742 476.266 174.005 475.584 174.248 474.896L177.865 464.692C180.275 457.897 182.437 451.018 184.664 444.162C186.993 436.996 189.344 429.837 191.691 422.677C193.679 416.612 195.015 409.383 198.416 403.962C198.826 403.309 199.956 403.676 199.826 404.401ZM715.031 454.729L715.067 454.722C716.289 454.912 719.253 498.99 723.985 519.048L724.346 520.585C729.969 544.662 734.008 568.508 734.174 593.447C734.315 615.607 729.875 637.758 717.774 656.578C707.695 672.267 692.395 685.107 673.995 689.468C665.905 691.378 656.724 691.428 649.125 687.648C645.524 685.857 642.835 681.838 638.895 680.918C638.514 680.828 638.134 680.767 637.754 680.738C637.616 672.938 637.85 665.132 638.134 657.334L638.489 647.756C639.2 628.116 639.682 608.544 638.724 588.898C637.735 568.607 635.785 548.328 632.985 528.208C631.545 517.828 630.045 507.418 628.205 497.098C626.884 489.738 625.854 481.758 623.634 474.408C624.325 474.517 625.014 474.607 625.695 474.697C631.384 475.408 637.174 475.408 642.774 476.807C647.707 478.037 651.948 480.441 656.227 483.044L657.767 483.987C658.275 484.301 658.788 484.62 659.305 484.942C665.735 488.947 672.821 493.36 680.585 492.187C684.504 491.598 687.615 490.068 690.205 487.937C690.264 492.727 690.674 497.548 691.674 502.238C693.246 509.597 695.945 516.525 698.903 523.389L699.754 525.349L700.615 527.307C704.155 535.328 708.094 543.178 710.825 551.537L710.828 551.547C711.219 551.634 711.592 551.72 711.948 551.802C715.939 552.722 717.841 553.161 720.217 548.711C720.42 548.33 720.659 548.023 720.918 547.764C718.532 541.009 715.465 534.474 712.335 528.057C708.445 520.078 704.235 512.238 700.875 504.008C698.964 499.348 697.315 494.498 696.054 489.607C695.504 487.477 695.224 485.187 694.825 482.937C699.705 476.227 704.663 460.873 715.031 454.729Z" transform="translate(29.99361 -11.99969)" fill="#000000" fill-rule="evenodd" stroke="none"></path></g><g transform="translate(225 0)"><g><g><path d="M333.415 93.2216C329.554 69.8624 342.226 65.0158 333.415 42.8109C313.833 1.66731 260.468 3.44007 221.308 0.276637C177.63 -1.39736 133.422 4.36885 93.1557 21.875C83.5377 26.056 74.2867 30.9732 65.4187 36.5599C57.7507 41.3913 58.8047 50.5773 63.6397 55.5884C28.7747 104.96 48.7157 171.232 20.8967 223.202C15.7577 232.491 8.96066 240.821 4.49366 250.487C-2.29634 265.18 -2.73134 286.233 12.6667 295.99C34.3537 307.631 46.4557 284.584 57.1117 317.993C110.33 434.483 217.329 441.044 318.905 380.31C327.693 375.422 336.662 369.897 343.298 362.217C358.361 345.266 356.587 321.428 356.92 300.259C357.106 287.854 357.137 275.447 357.016 263.039C356.542 212.781 339.885 143.065 333.415 93.2216Z" transform="translate(52 80)" fill="#FFFFFF" stroke="none"></path><path d="M328.858 2.05735C261.958 -4.86265 192.397 5.68736 131.067 33.5074C98.6176 48.2274 68.8166 68.4874 42.6976 92.7374C37.9276 91.3974 32.7076 91.1174 28.3676 91.8674C21.2676 93.0974 14.7676 97.1574 10.5076 102.957C4.02762 111.757 4.25762 122.977 9.17762 131.897C8.39662 132.526 7.67762 133.247 7.01762 134.026C1.82762 140.217 2.36762 148.207 6.17762 154.977C7.24342 156.875 9.16081 158.976 11.1901 161.199C15.3299 165.734 19.9355 170.779 18.7276 175.657C17.9176 178.967 14.9776 182.067 13.2676 184.977C11.1376 188.597 9.33762 192.377 7.73762 196.257C-4.71818 226.333 -0.00202393 258.647 7.02466 289.34L7.65708 292.088C9.04719 298.235 10.3267 305.444 12.6176 312.087C-4.37238 335.487 -0.292376 375.167 27.4976 388.417C34.3276 391.677 41.9276 393.517 49.5176 393.267C53.4776 393.127 57.6076 392.587 61.3576 391.287C63.2276 390.637 65.0776 389.807 66.5276 388.477C70.0076 406.887 77.9576 423.847 87.9476 439.797C93.5776 448.767 100.108 457.727 107.668 465.177C115.658 473.037 129.448 480.717 139.189 471.047C142.508 467.757 141.439 462.647 137.788 460.207C130.948 455.607 123.708 452.787 117.668 446.937C110.948 440.427 104.588 433.397 98.5876 426.227C90.0312 416.005 82.5119 404.857 75.1567 393.666L69.1576 384.517C69.171 384.487 69.1821 384.457 69.1921 384.427L69.2476 384.237C69.2636 384.143 69.2788 384.052 69.2933 383.963L69.4386 383.026C69.4725 382.954 69.5155 382.863 69.5663 382.753L69.8076 382.207C71.6466 378.677 69.3576 374.617 65.3576 374.446C64.0719 374.446 63.8943 374.407 64.8177 374.321L65.1976 374.287C63.8276 373.487 62.3476 373.087 60.7476 373.087C58.8776 373.087 57.0976 373.727 55.3076 374.167C52.6676 374.817 50.3166 375.276 47.5976 375.267C42.0176 375.247 36.6376 373.637 31.9276 370.667C21.0476 363.807 17.9076 349.097 19.6676 337.057C20.1676 333.647 20.9876 330.427 22.1576 327.427C23.6076 328.657 25.2276 329.707 27.0376 330.557C27.3076 330.687 27.5276 330.317 27.2776 330.147C25.5076 329.007 23.9876 327.647 22.6886 326.127C25.9476 318.507 31.4576 312.337 39.2876 308.007C44.2276 305.276 49.8076 303.977 55.2976 304.167C55.3166 304.327 55.3476 304.487 55.3776 304.647C55.9783 307.776 57.4624 309.353 59.6223 311.246L60.3966 311.917C63.3476 314.437 67.1276 314.207 69.5076 311.837L69.5666 311.917C70.3276 311.167 70.9776 310.467 71.5376 309.776C72.6466 310.607 73.6976 311.537 74.6886 312.567C75.0576 312.946 75.6776 312.457 75.4276 311.997C74.6466 310.587 73.7676 309.257 72.7876 308.026C74.0576 305.907 74.5476 303.667 74.5576 300.387C74.5642 297.003 74.4699 293.608 74.3758 290.218C74.3414 288.98 74.307 287.743 74.2776 286.507C74.0666 277.577 73.6076 268.647 73.2576 259.717C73.1717 257.481 72.9894 255.167 72.8046 252.821C72.3654 247.245 71.9123 241.493 72.7076 236.207C73.3663 231.834 76.0088 230.809 79.648 229.747L84.3783 228.38C95.5003 225.123 106.766 221.046 109.178 207.897C110.675 199.71 108.189 192.058 105.694 184.378C103.907 178.879 102.116 173.364 101.778 167.627C101.058 155.577 104.758 143.307 111.608 133.337C118.248 135.057 124.858 136.887 131.608 138.237C140.948 140.117 150.317 141.797 159.718 143.317C178.189 146.307 196.718 148.696 215.388 150.087C252.808 152.867 290.508 151.467 327.628 145.877C332.908 145.087 338.168 144.157 343.388 143.007C343.358 143.897 343.317 144.797 343.268 145.696C342.978 150.717 342.838 155.707 342.828 160.727C342.658 162.037 342.698 163.457 342.939 165.007L343.218 166.817C343.418 168.077 343.918 169.227 344.658 170.237C346.439 198.037 350.189 225.687 353.758 253.327L354.608 259.939C358.846 293 362.863 326.098 366.238 359.257C366.538 362.197 366.894 365.184 367.254 368.201C368.86 381.673 370.537 395.733 367.588 408.797C364.668 421.767 356.388 431.847 346.078 439.907C321.848 458.877 291.468 471.398 261.888 479.077C246.048 483.187 228.918 487.287 212.468 487.097C206.578 487.026 200.328 486.317 194.939 483.776C190.335 481.617 187.444 477.727 184.805 473.541L184.298 472.727C182.098 469.177 175.678 469.377 174.788 473.967C172.138 487.557 184.439 496.017 196.168 499.297C209.517 503.032 223.421 501.296 236.916 499.236L239.248 498.877C274.208 493.457 307.478 481.776 339.088 466.087C353.078 459.147 366.088 449.797 375.628 437.317C386.258 423.397 389.548 406.927 388.618 389.677C387.578 370.667 384.578 351.607 382.178 332.737L381.43 326.903C379.178 309.4 376.826 291.908 374.198 274.457C369.168 241.026 363.718 207.397 354.698 174.776C354.897 174.757 355.098 174.737 355.298 174.707C360.998 173.847 364.358 169.497 364.848 163.887L365.768 153.357L366.267 153.389C382.813 154.407 404.315 152.364 411.948 135.227C414.608 129.257 415.278 122.627 414.038 116.637C425.078 113.776 435.328 107.807 443.228 99.5574C447.328 95.2764 447.038 89.0874 443.228 84.7474C440.968 82.1574 438.558 79.8374 436.018 77.7574C443.228 75.1964 449.988 70.3974 453.748 63.7074C458.588 55.0974 456.689 44.5574 449.918 37.5874C444.1 31.5899 435.848 28.6654 428.193 25.719L425.475 24.6686C394.464 12.7839 361.878 5.46756 328.858 2.05735ZM54.9381 328.377C45.4381 327.567 37.7381 330.787 30.7671 336.937C30.0781 337.537 30.8371 338.477 31.5971 338.347C38.5071 337.127 46.6771 338.497 53.2781 340.627C60.6271 343.007 64.5781 348.007 70.4981 352.437C76.9981 357.297 86.0281 347.807 81.5971 341.337C75.9881 333.147 64.4881 329.196 54.9381 328.377Z" transform="translate(37.99998 0.0003450957)" fill="#000000" fill-rule="evenodd" stroke="none"></path></g></g><g transform="translate(159 186)"><g><path d="M161.26 3.75829C151.862 0.105287 135.062 -2.96371 127.162 5.02229C122.951 9.28029 125.484 15.1363 130.37 17.1713C133.516 18.4822 136.949 18.183 140.337 17.8877C141.669 17.7716 142.993 17.6562 144.29 17.6393C148.84 17.5813 153.361 18.1643 157.793 19.1723C161.357 19.9847 164.836 21.1098 168.293 22.2873L170.595 23.0773C171.32 23.3264 172.054 23.61 172.797 23.8967C175.616 24.9851 178.553 26.1192 181.532 25.5913C182.229 25.4673 182.565 24.7623 182.634 24.1453C183.089 20.0982 179.892 16.2352 177.024 13.4278L176.386 12.8144L175.972 12.4263C171.724 8.48129 166.624 5.84429 161.26 3.75829ZM33.6232 10.8211L35.7926 10.2262L38.0047 9.62924L39.5005 9.23374C49.7753 6.54436 61.1082 4.17756 71.2972 5.33309C75.0132 5.75509 78.0292 7.84609 78.5552 11.7391C78.9982 15.0241 76.8752 19.2621 73.2622 19.8461C61.2952 21.7821 49.0442 21.1541 37.0222 23.1501C31.0352 24.1431 25.0942 25.3761 19.1302 26.4871C14.5952 27.3331 9.90917 27.6301 5.33517 28.3141L6.38617 28.4601C6.75417 28.5101 6.66217 29.1291 6.29917 29.1041C4.79154 28.9536 3.28162 28.9302 1.7694 29.0359L1.12117 29.0891C0.134167 29.2281 -0.447833 28.0501 0.432167 27.4521C6.00517 23.6711 10.7342 19.5731 16.9742 16.7861C22.3712 14.3761 27.9262 12.3891 33.6232 10.8211ZM166.634 45.6655C168.478 45.1131 169.779 45.3742 171.441 46.2403C172.719 46.9059 173.589 47.9568 174.088 49.1838C174.599 50.4395 174.707 51.8878 174.454 53.2296C173.406 58.8007 170.042 63.7442 165.503 66.9282C161.091 70.0227 155.589 71.452 150.049 70.2614C146.003 69.3919 140.008 65.5531 136.85 60.8711C135.504 58.8752 134.671 56.736 134.581 54.6232C134.495 52.6084 135.008 50.5771 137.676 47.8994C137.936 47.8184 138.208 47.7747 138.477 47.7747C139.138 47.7747 139.821 48.0516 140.274 48.4513C141.469 49.502 142.312 50.8319 143.178 52.2626L143.41 52.6451C143.799 53.2818 144.2 53.9109 144.69 54.476C146.449 56.5028 149.003 58.2218 151.683 58.6693C154.167 59.0845 156.407 58.3485 158.181 56.9599C160.257 55.3353 161.713 52.8432 162.253 50.1809C162.472 49.1021 163.036 48.1297 163.818 47.3478C164.607 46.5588 165.615 45.9718 166.634 45.6655ZM49.1162 69.4299C47.1005 71.4882 44.4385 72.6496 41.0316 71.9587C38.3694 71.4193 33.3005 68.7424 29.2512 64.6199C26.481 61.7996 24.1647 58.2755 23.535 54.193C23.3888 53.2449 22.8856 52.6371 22.225 52.2543C21.7033 51.952 21.0154 51.8002 20.2661 51.876C19.6299 51.9404 18.9544 52.1708 18.4324 52.4762C17.4395 53.0572 17.0334 53.8821 16.9509 54.498C16.1543 60.4416 18.4501 66.3391 22.0288 71.3116C26.8584 78.0223 33.951 82.9399 38.1196 84.0909C45.2534 86.0617 52.7703 84.4928 58.3124 79.5277C62.7443 75.5578 65.0159 70.3856 67.1236 65.0671L67.53 64.0361C68.0041 62.8293 68.4745 61.6313 68.9729 60.4461C69.9719 58.0711 69.652 56.0181 68.6834 54.418C67.6103 52.6454 65.6296 51.3976 63.4246 51.0143C61.3865 50.6601 59.2055 51.0476 57.4838 52.2925C56.0293 53.3441 54.8564 55.0104 54.4397 57.4743C53.762 61.4809 52.1899 66.0779 49.4178 69.111L49.1162 69.4299ZM129.748 108.039C137.872 96.6602 126.366 85.9571 118.814 81.367C116.836 79.9471 118.406 75.2433 122.634 75.9703C161.031 82.5673 141.136 148.708 92.1122 112.413C86.2756 107.704 93.3436 97.3338 99.6344 101.366C99.9534 101.611 100.288 101.869 100.637 102.139C107.704 107.603 120.636 117.601 129.748 108.039ZM138.581 156.822C135.281 161.137 129.306 164.442 122.614 166.022C116.238 167.528 109.191 167.466 103.109 165.149L102.587 164.941C98.0396 163.053 93.6748 159.239 92.0173 155.26C91.3584 153.678 91.1354 152.069 91.5864 150.569C91.9921 149.219 92.9432 147.976 94.5273 146.909C95.0247 146.574 95.6918 146.55 96.3274 146.662C97.116 146.801 97.8933 147.17 98.3623 147.668C100.964 150.435 104.739 153.132 109.207 153.086C112.655 153.051 115.47 151.69 118.2 150.151L120.119 149.053C121.97 147.996 123.847 147.004 125.971 146.551C129.773 145.739 134.384 147.222 137.194 149.67C138.419 150.737 139.309 151.991 139.551 153.343C139.755 154.477 139.469 155.661 138.581 156.822Z" transform="translate(51.99983 63.00011)" fill="#000000" fill-rule="evenodd" stroke="none"></path></g></g><g transform="translate(123 338)"><g><path d="M276.67 82.0231C278.737 79.5551 285.109 75.4151 286.653 74.1321C289.701 71.6021 295.493 72.9491 295.189 77.6681L293.255 107.666C293.056 110.762 290.518 130.65 289.843 135.839C287.206 156.112 281.179 175.773 268.552 191.974C261.502 201.014 252.892 207.844 243.322 212.814C236.572 217.734 229.132 221.684 221.262 224.514C205.252 230.274 187.822 230.094 171.242 227.184C156.182 224.544 141.182 219.524 127.172 213.174C111.042 208.294 95.3216 202.064 80.3216 195.054C64.5716 187.694 47.6116 179.464 35.1316 167.074C23.1416 155.184 16.8616 139.054 12.8816 122.944C12.2716 120.484 11.7016 118.004 11.1716 115.514C10.6516 114.194 10.2216 112.774 9.88161 111.184C8.79161 106.134 7.80161 101.064 6.91161 95.9841C5.14161 85.9341 3.72161 75.8141 2.65161 65.6641C1.57161 55.3941 0.891612 45.0841 0.591612 34.7641C0.54156 33.006 0.435836 31.1613 0.327412 29.2696C-0.0840528 22.0905 -0.534392 14.2331 1.87161 7.85407C3.66161 3.11407 7.66161 0.104072 11.9916 0.00407165C14.3816 -0.0659284 16.8816 0.764072 19.1616 2.69407C24.6516 7.33407 47.3816 60.2241 56.0016 71.9741C64.8316 84.0041 74.8116 95.2941 85.8616 105.294C86.0516 105.404 86.2416 105.524 86.4216 105.644C101.412 101.864 114.892 94.4641 125.852 82.8841C135.512 72.6741 143.392 60.8341 154.822 52.4041C160.422 48.2741 166.902 45.3441 173.822 44.3941C178.977 43.691 184.101 44.1701 189.228 44.6497C193.509 45.0501 197.793 45.4507 202.102 45.1641C203.708 45.0594 205.295 44.9163 206.868 44.7745C214.012 44.1306 220.86 43.5134 227.802 46.6441C234.992 49.8741 240.502 55.7041 245.882 61.2741C253.452 69.1271 261.935 75.3901 271.464 79.8221C272.829 79.7921 274.168 80.2821 275.077 81.3981C275.605 81.6121 276.136 81.8201 276.67 82.0231ZM238.77 124.972C242.214 126.253 245.642 127.582 249.132 128.724C251.352 129.444 253.632 130.134 255.932 130.624C260.962 125.204 264.642 118.694 267.552 111.724C263.042 111.484 258.412 109.854 254.552 108.194C247.092 104.974 240.342 100.194 232.672 97.4641C216.512 91.7141 199.052 94.2441 182.962 98.8741C165.682 103.834 149.342 111.574 132.002 116.324C126.355 117.876 120.113 119.38 113.738 120.285C114.786 121.52 115.761 122.806 116.701 124.129C125.511 129.063 134.585 133.548 144.232 137.184C145.572 137.684 146.922 138.184 148.272 138.654C150.474 138.04 152.652 137.308 154.812 136.502C163.907 132.197 172.359 125.628 181.423 121.972C199.89 114.523 221.161 116.127 238.77 124.972Z" transform="translate(-0.9999123 -17.00057)" fill="#000000" fill-rule="evenodd" stroke="none"></path></g></g><g transform="translate(47 241)"><g><path d="M409.463 3.8448C410.287 3.9658 411.111 4.0948 411.934 4.2318C418.27 5.2808 419.246 15.2398 413.729 17.9668C409.483 20.0668 406.817 24.2488 407.954 29.0788C408.779 32.5828 407.27 35.3698 404.887 36.8078C404.153 59.4058 400.438 84.7238 382.858 101.261C342.399 128.036 302.322 95.3878 310.705 43.7638C310.105 43.3428 309.577 42.8078 309.189 42.1368C308.911 41.6868 308.672 41.2368 308.449 40.7878C307.565 40.0648 301.03 37.7038 292.541 38.8798C284.052 40.0568 281.355 44.0148 277.062 48.3008C276.399 49.5928 275.264 50.5688 273.479 50.9698C270.103 69.9788 266.632 91.0678 252.071 105.304C215.602 139.383 152.661 111.085 154.989 59.2428C142.316 57.0798 152.882 42.2078 132.833 38.8798C129.215 37.6678 125.792 35.3518 123.536 32.6958C93.5503 29.4738 64.0323 30.9178 35.0393 41.3338C33.2654 42.076 31.4106 42.7524 29.5642 43.4257C19.2827 47.175 9.2641 50.8284 14.9483 65.2098C14.7313 69.9788 8.89832 72.8158 5.46132 69.2928L5.45832 69.2958C5.45332 69.2898 5.45032 69.2828 5.44632 69.2768C-14.0668 34.2407 22.9785 28.378 51.445 23.8729C52.0721 23.7736 52.6952 23.675 53.3133 23.5768C68.6263 20.2758 84.2953 18.8808 99.9463 19.2088C101.76 19.2865 103.703 19.3157 105.697 19.3457C111.762 19.4369 118.302 19.5352 123.121 21.0268C123.147 21.0348 123.172 21.0408 123.197 21.0478C129.862 0.847801 268.445 -3.8812 276.461 29.6238C280.189 29.5282 283.582 29.8068 286.814 30.0721C292.712 30.5563 298.071 30.9962 303.94 29.0368C306.664 4.6888 372.671 -4.4282 401.203 1.9928C403.191 2.1778 405.182 2.5208 407.187 3.0298C408.065 3.1988 408.82 3.4798 409.463 3.8448ZM379.696 25.3631C380.723 23.6008 383.403 22.675 385.173 23.9221C389.215 26.7678 392.148 31.0002 392.344 36.066C392.544 41.2443 384.536 41.2182 384.337 36.066L384.321 35.8198C384.135 33.851 382.654 31.9296 381.133 30.8576L380.964 30.7337C379.306 29.4642 378.564 27.3036 379.696 25.3631ZM238.087 28.7229C233.065 27.6183 230.92 35.3611 235.958 36.4687C239.526 37.253 242.549 39.052 244.592 42.0998L244.807 42.4312C247.548 46.7931 254.48 42.7666 251.719 38.3765C248.614 33.4362 243.788 29.976 238.087 28.7229Z" transform="translate(-12.99972 8.999499)" fill="#000000" fill-rule="evenodd" stroke="none"></path></g></g></g></g></svg>